<svg width="299" height="109" viewBox="0 0 299 109" fill="none" xmlns="http://www.w3.org/2000/svg">
<rect width="299" height="109" fill="#322D2D"/>
<path d="M61.0381 25.1054C61.6361 24.532 61.6561 23.5825 61.0827 22.9845L51.7398 13.2398C51.1665 12.6418 50.217 12.6218 49.619 13.1951C49.021 13.7684 49.001 14.718 49.5743 15.316L57.8791 23.978L49.2171 32.2828C48.6191 32.8561 48.5992 33.8056 49.1725 34.4036C49.7458 35.0016 50.6954 35.0216 51.2933 34.4483L61.0381 25.1054ZM8 85.5226L23.5556 93.14L22.3746 75.8598L8 85.5226ZM60.0316 22.5229C47.9871 22.2694 37.4276 24.1377 29.0615 27.1081C20.7334 30.065 14.4472 34.1628 11.1049 38.4756C9.42813 40.6394 8.41804 42.9571 8.39692 45.2742C8.37533 47.6426 9.39011 49.8045 11.36 51.5714C15.1772 54.9953 22.6394 57.0163 33.9564 57.0163V54.0163C22.7734 54.0163 16.3035 51.9756 13.3632 49.3382C11.9543 48.0745 11.384 46.7058 11.3968 45.3015C11.4101 43.8459 12.0539 42.1487 13.4762 40.3133C16.3324 36.6277 22.0258 32.7896 30.0653 29.9352C38.0668 27.0942 48.2628 25.2759 59.9684 25.5223L60.0316 22.5229ZM33.9564 57.0163C43.9589 57.0163 50.1015 58.5235 53.2645 60.6051C54.8077 61.6206 55.5437 62.7053 55.792 63.7401C56.0418 64.7811 55.8574 66.0185 55.0748 67.4489C53.4765 70.3702 49.5971 73.675 43.6894 76.5853C37.8346 79.4696 30.1683 81.8758 21.258 83.1168L21.6718 86.0881C30.8603 84.8084 38.8401 82.3185 45.0151 79.2765C51.1372 76.2605 55.6714 72.6089 57.7066 68.8888C58.7408 66.9985 59.1781 64.994 58.7092 63.04C58.2388 61.0799 56.9156 59.4165 54.9137 58.0991C50.9866 55.5147 44.0953 54.0163 33.9564 54.0163V57.0163Z" fill="#36AFD4"/>
<path d="M111.9 50.95H110.5C108.95 50.95 107.6 51.95 107.1 53.4L101.8 69.6L95.75 53.3C95.25 51.85 93.9 50.95 92.4 50.95H90.95C89.45 50.95 88.1 51.85 87.6 53.25L81.5 69.6L76.2 53.4C75.7 51.95 74.3 50.95 72.75 50.95H71.35C70.2 50.95 69.1 51.5 68.45 52.4C67.75 53.35 67.55 54.55 67.95 55.65L77.15 83.5C77.6 85 79 86 80.55 86H82C83.5 86 84.85 85.05 85.35 83.65L91.65 66.45L97.9 83.65C98.45 85.05 99.8 86 101.3 86H102.75C104.3 86 105.65 85 106.15 83.5L115.35 55.65C115.7 54.55 115.5 53.35 114.85 52.4C114.15 51.5 113.05 50.95 111.9 50.95ZM132.87 86H134.12C136.12 86 137.77 84.4 137.77 82.4V54.55C137.77 52.55 136.12 50.95 134.12 50.95H132.87C130.87 50.95 129.27 52.55 129.27 54.55V82.4C129.27 84.4 130.87 86 132.87 86ZM151.637 54.55V55.55C151.637 57.55 153.237 59.15 155.237 59.15H164.037V82.4C164.037 84.4 165.637 86 167.637 86H168.937C170.887 86 172.537 84.4 172.537 82.4V59.15H181.337C183.337 59.15 184.937 57.55 184.937 55.55V54.55C184.937 52.55 183.337 50.95 181.337 50.95H155.237C153.237 50.95 151.637 52.55 151.637 54.55ZM213.339 86.35C217.639 86.35 221.189 85.35 223.989 83.45C224.689 82.95 225.239 82.45 225.639 82C227.089 80.3 226.789 78.7 226.589 78.05C226.089 76.45 224.589 75.4 222.839 75.4C221.689 75.4 220.389 75.85 219.089 76.75C217.789 77.65 215.839 78.1 213.339 78.1C210.989 78.1 209.189 77.45 207.839 76.1C206.539 74.75 205.889 72.9 205.889 70.5V66.3C205.889 63.9 206.539 62.1 207.889 60.75C209.189 59.4 210.989 58.7 213.339 58.7C215.839 58.7 217.739 59.2 219.039 60.1C220.339 61.05 221.589 61.5 222.789 61.5C224.539 61.5 226.089 60.45 226.589 58.8C226.989 57.45 226.889 55.4 223.989 53.4C221.239 51.45 217.639 50.5 213.339 50.5C208.639 50.5 204.739 51.95 201.789 54.9C198.889 57.85 197.389 61.7 197.389 66.35V70.5C197.389 75.15 198.889 78.95 201.839 81.9C204.739 84.85 208.639 86.35 213.339 86.35ZM244.396 86H245.646C247.646 86 249.296 84.4 249.296 82.4V72.7H263.846V82.4C263.846 84.4 265.446 86 267.446 86H268.696C270.696 86 272.296 84.4 272.296 82.4V54.55C272.296 52.55 270.696 50.95 268.696 50.95H267.446C265.446 50.95 263.846 52.55 263.846 54.55V64.45H249.296V54.55C249.296 52.55 247.646 50.95 245.646 50.95H244.396C242.396 50.95 240.796 52.55 240.796 54.55V82.4C240.796 84.4 242.396 86 244.396 86Z" fill="white"/>
</svg>
