<svg width="284" height="82" viewBox="0 0 284 82" fill="none" xmlns="http://www.w3.org/2000/svg">
<path d="M53.0381 13.1054C53.6361 12.532 53.6561 11.5825 53.0827 10.9845L43.7398 1.23977C43.1665 0.641781 42.217 0.621791 41.619 1.19512C41.021 1.76845 41.001 2.71798 41.5743 3.31597L49.8791 11.978L41.2171 20.2828C40.6191 20.8561 40.5992 21.8056 41.1725 22.4036C41.7458 23.0016 42.6954 23.0216 43.2933 22.4483L53.0381 13.1054ZM0 73.5226L15.5556 81.14L14.3746 63.8598L0 73.5226ZM52.0316 10.5229C39.9871 10.2694 29.4276 12.1377 21.0615 15.1081C12.7334 18.065 6.44717 22.1628 3.10493 26.4756C1.42813 28.6394 0.418039 30.9571 0.396918 33.2742C0.375328 35.6426 1.39011 37.8045 3.36 39.5714C7.17719 42.9953 14.6394 45.0163 25.9564 45.0163V42.0163C14.7734 42.0163 8.30347 39.9756 5.36316 37.3382C3.95431 36.0745 3.38399 34.7058 3.39679 33.3015C3.41006 31.8459 4.05385 30.1487 5.47624 28.3133C8.33239 24.6277 14.0258 20.7896 22.0653 17.9352C30.0668 15.0942 40.2628 13.2759 51.9684 13.5223L52.0316 10.5229ZM25.9564 45.0163C35.9589 45.0163 42.1015 46.5235 45.2645 48.6051C46.8077 49.6206 47.5437 50.7053 47.792 51.7401C48.0418 52.7811 47.8574 54.0185 47.0748 55.4489C45.4765 58.3702 41.5971 61.675 35.6894 64.5853C29.8346 67.4696 22.1683 69.8758 13.258 71.1168L13.6718 74.0881C22.8603 72.8084 30.8401 70.3185 37.0151 67.2765C43.1372 64.2605 47.6714 60.6089 49.7066 56.8888C50.7408 54.9985 51.1781 52.994 50.7092 51.04C50.2388 49.0799 48.9156 47.4165 46.9137 46.0991C42.9866 43.5147 36.0953 42.0163 25.9564 42.0163V45.0163Z" fill="#36AFD4"/>
<path d="M103.9 38.95H102.5C100.95 38.95 99.6 39.95 99.1 41.4L93.8 57.6L87.75 41.3C87.25 39.85 85.9 38.95 84.4 38.95H82.95C81.45 38.95 80.1 39.85 79.6 41.25L73.5 57.6L68.2 41.4C67.7 39.95 66.3 38.95 64.75 38.95H63.35C62.2 38.95 61.1 39.5 60.45 40.4C59.75 41.35 59.55 42.55 59.95 43.65L69.15 71.5C69.6 73 71 74 72.55 74H74C75.5 74 76.85 73.05 77.35 71.65L83.65 54.45L89.9 71.65C90.45 73.05 91.8 74 93.3 74H94.75C96.3 74 97.65 73 98.15 71.5L107.35 43.65C107.7 42.55 107.5 41.35 106.85 40.4C106.15 39.5 105.05 38.95 103.9 38.95ZM124.87 74H126.12C128.12 74 129.77 72.4 129.77 70.4V42.55C129.77 40.55 128.12 38.95 126.12 38.95H124.87C122.87 38.95 121.27 40.55 121.27 42.55V70.4C121.27 72.4 122.87 74 124.87 74ZM143.637 42.55V43.55C143.637 45.55 145.237 47.15 147.237 47.15H156.037V70.4C156.037 72.4 157.637 74 159.637 74H160.937C162.887 74 164.537 72.4 164.537 70.4V47.15H173.337C175.337 47.15 176.937 45.55 176.937 43.55V42.55C176.937 40.55 175.337 38.95 173.337 38.95H147.237C145.237 38.95 143.637 40.55 143.637 42.55ZM205.339 74.35C209.639 74.35 213.189 73.35 215.989 71.45C216.689 70.95 217.239 70.45 217.639 70C219.089 68.3 218.789 66.7 218.589 66.05C218.089 64.45 216.589 63.4 214.839 63.4C213.689 63.4 212.389 63.85 211.089 64.75C209.789 65.65 207.839 66.1 205.339 66.1C202.989 66.1 201.189 65.45 199.839 64.1C198.539 62.75 197.889 60.9 197.889 58.5V54.3C197.889 51.9 198.539 50.1 199.889 48.75C201.189 47.4 202.989 46.7 205.339 46.7C207.839 46.7 209.739 47.2 211.039 48.1C212.339 49.05 213.589 49.5 214.789 49.5C216.539 49.5 218.089 48.45 218.589 46.8C218.989 45.45 218.889 43.4 215.989 41.4C213.239 39.45 209.639 38.5 205.339 38.5C200.639 38.5 196.739 39.95 193.789 42.9C190.889 45.85 189.389 49.7 189.389 54.35V58.5C189.389 63.15 190.889 66.95 193.839 69.9C196.739 72.85 200.639 74.35 205.339 74.35ZM236.396 74H237.646C239.646 74 241.296 72.4 241.296 70.4V60.7H255.846V70.4C255.846 72.4 257.446 74 259.446 74H260.696C262.696 74 264.296 72.4 264.296 70.4V42.55C264.296 40.55 262.696 38.95 260.696 38.95H259.446C257.446 38.95 255.846 40.55 255.846 42.55V52.45H241.296V42.55C241.296 40.55 239.646 38.95 237.646 38.95H236.396C234.396 38.95 232.796 40.55 232.796 42.55V70.4C232.796 72.4 234.396 74 236.396 74Z" fill="white"/>
</svg>
