<svg width="54" height="82" viewBox="0 0 54 82" fill="none" xmlns="http://www.w3.org/2000/svg">
<path d="M53.0381 13.1054C53.6361 12.532 53.6561 11.5825 53.0827 10.9845L43.7398 1.23977C43.1665 0.641781 42.217 0.621791 41.619 1.19512C41.021 1.76845 41.001 2.71798 41.5743 3.31597L49.8791 11.978L41.2171 20.2828C40.6191 20.8561 40.5992 21.8056 41.1725 22.4036C41.7458 23.0016 42.6954 23.0216 43.2933 22.4483L53.0381 13.1054ZM0 73.5226L15.5556 81.14L14.3746 63.8598L0 73.5226ZM52.0316 10.5229C39.9871 10.2694 29.4276 12.1377 21.0615 15.1081C12.7334 18.065 6.44717 22.1628 3.10493 26.4756C1.42813 28.6394 0.418039 30.9571 0.396918 33.2742C0.375328 35.6426 1.39011 37.8045 3.36 39.5714C7.17719 42.9953 14.6394 45.0163 25.9564 45.0163V42.0163C14.7734 42.0163 8.30347 39.9756 5.36316 37.3382C3.95431 36.0745 3.38399 34.7058 3.39679 33.3015C3.41006 31.8459 4.05385 30.1487 5.47624 28.3133C8.33239 24.6277 14.0258 20.7896 22.0653 17.9352C30.0668 15.0942 40.2628 13.2759 51.9684 13.5223L52.0316 10.5229ZM25.9564 45.0163C35.9589 45.0163 42.1015 46.5235 45.2645 48.6051C46.8077 49.6206 47.5437 50.7053 47.792 51.7401C48.0418 52.7811 47.8574 54.0185 47.0748 55.4489C45.4765 58.3702 41.5971 61.675 35.6894 64.5853C29.8346 67.4696 22.1683 69.8758 13.258 71.1168L13.6718 74.0881C22.8603 72.8084 30.8401 70.3185 37.0151 67.2765C43.1372 64.2605 47.6714 60.6089 49.7066 56.8888C50.7408 54.9985 51.1781 52.994 50.7092 51.04C50.2388 49.0799 48.9156 47.4165 46.9137 46.0991C42.9866 43.5147 36.0953 42.0163 25.9564 42.0163V45.0163Z" fill="#36AFD4"/>
</svg>
